# 3ds Max Wavefront OBJ Exporter v0.97b - (c)2007 guruware
# File Created: 13.09.2016 17:52:31

mtllib IrrigationTool.mtl

#
# object initialShadingGroup_Tool
#

v  1.4529 12.0896 -6.6715
v  1.4530 13.9222 -7.4067
v  1.6392 14.0008 -7.0576
v  1.6391 12.2448 -6.3394
v  1.1742 11.9859 -6.8934
v  1.1742 13.8696 -7.6400
v  0.8454 11.9494 -6.9713
v  0.8454 13.8512 -7.7220
v  0.5167 11.9859 -6.8934
v  0.5166 13.8696 -7.6400
v  0.2380 12.0896 -6.6715
v  0.2379 13.9222 -7.4067
v  0.0517 12.2448 -6.3394
v  0.0516 14.0008 -7.0576
v  -0.0137 12.4280 -5.9477
v  -0.0138 14.0936 -6.6457
v  0.0517 12.6111 -5.5559
v  0.0516 14.1863 -6.2338
v  0.2380 12.7663 -5.2238
v  0.2379 14.2650 -5.8846
v  0.5167 12.8701 -5.0019
v  0.5166 14.3175 -5.6513
v  0.8454 12.9065 -4.9240
v  0.8454 14.3360 -5.5694
v  1.1742 12.8701 -5.0019
v  1.1742 14.3175 -5.6513
v  1.4529 12.7663 -5.2238
v  1.4530 14.2650 -5.8846
v  1.6391 12.6111 -5.5559
v  1.6392 14.1863 -6.2338
v  1.7045 12.4280 -5.9477
v  1.7046 14.0936 -6.6457
v  1.4531 16.0786 -7.7942
v  1.4531 62.5211 -7.7942
v  1.6393 62.5211 -7.4275
v  1.6393 16.0786 -7.4275
v  1.1743 16.0786 -8.0393
v  1.1743 62.5211 -8.0393
v  0.8454 16.0786 -8.1253
v  0.8454 62.5211 -8.1253
v  0.5166 16.0786 -8.0393
v  0.5166 62.5211 -8.0393
v  0.2378 16.0786 -7.7942
v  0.2378 62.5211 -7.7942
v  0.0515 16.0786 -7.4275
v  0.0515 62.5211 -7.4275
v  -0.0139 16.0786 -6.9950
v  -0.0139 62.5211 -6.9950
v  0.0515 16.0786 -6.5624
v  0.0515 62.5211 -6.5624
v  0.2378 16.0786 -6.1957
v  0.2378 62.5211 -6.1957
v  0.5166 16.0786 -5.9507
v  0.5166 62.5211 -5.9507
v  0.8454 16.0786 -5.8646
v  0.8454 62.5211 -5.8646
v  1.1743 16.0786 -5.9507
v  1.1743 62.5211 -5.9507
v  1.4531 16.0786 -6.1957
v  1.4531 62.5211 -6.1957
v  1.6393 16.0786 -6.5624
v  1.6393 62.5211 -6.5624
v  1.7047 16.0786 -6.9950
v  1.7047 62.5211 -6.9950
v  1.6391 0.4587 -1.0620
v  1.4529 0.3034 -1.3941
v  1.1742 0.1997 -1.6160
v  0.8454 0.1633 -1.6940
v  0.5167 0.1997 -1.6160
v  0.2380 0.3034 -1.3941
v  0.0517 0.4587 -1.0620
v  -0.0137 0.6418 -0.6703
v  0.0517 0.8249 -0.2785
v  0.2380 0.9802 0.0536
v  0.5167 1.0839 0.2755
v  0.8454 1.1203 0.3534
v  1.1742 1.0839 0.2755
v  1.4529 0.9802 0.0536
v  1.6391 0.8249 -0.2785
v  1.7045 0.6418 -0.6703
v  1.5011 0.4905 -0.9939
v  1.3473 0.3623 -1.2683
v  1.1170 0.2766 -1.4516
v  0.8454 0.2465 -1.5160
v  0.5738 0.2766 -1.4516
v  0.3436 0.3623 -1.2683
v  0.1897 0.4905 -0.9939
v  0.1357 0.6418 -0.6703
v  0.1897 0.7931 -0.3466
v  0.3436 0.9213 -0.0723
v  0.5738 1.0070 0.1110
v  0.8454 1.0371 0.1754
v  1.1170 1.0070 0.1110
v  1.3473 0.9213 -0.0723
v  1.5011 0.7931 -0.3466
v  1.5551 0.6418 -0.6703
v  1.5011 11.9585 -6.1658
v  1.3473 11.8303 -6.4402
v  1.1170 11.7446 -6.6235
v  0.8454 11.7145 -6.6879
v  0.5738 11.7446 -6.6235
v  0.3436 11.8303 -6.4402
v  0.1897 11.9585 -6.1658
v  0.1357 12.1098 -5.8422
v  0.1897 12.2611 -5.5186
v  0.3436 12.3893 -5.2442
v  0.5738 12.4750 -5.0609
v  0.8454 12.5051 -4.9965
v  1.1170 12.4750 -5.0609
v  1.3473 12.3893 -5.2442
v  1.5011 12.2611 -5.5186
v  1.5551 12.1098 -5.8422
v  0.8454 62.5211 -6.9950
v  -0.2605 12.0896 -6.6715
v  -0.2604 13.9222 -7.4067
v  -0.0741 14.0008 -7.0576
v  -0.0742 12.2448 -6.3394
v  -0.5392 11.9859 -6.8934
v  -0.5391 13.8696 -7.6400
v  -0.8679 11.9494 -6.9713
v  -0.8679 13.8512 -7.7220
v  -1.1967 11.9859 -6.8934
v  -1.1967 13.8696 -7.6400
v  -1.4754 12.0896 -6.6715
v  -1.4755 13.9222 -7.4067
v  -1.6616 12.2448 -6.3394
v  -1.6617 14.0008 -7.0576
v  -1.7270 12.4280 -5.9477
v  -1.7271 14.0936 -6.6457
v  -1.6616 12.6111 -5.5559
v  -1.6617 14.1863 -6.2338
v  -1.4754 12.7663 -5.2238
v  -1.4755 14.2650 -5.8846
v  -1.1967 12.8701 -5.0019
v  -1.1967 14.3175 -5.6513
v  -0.8679 12.9065 -4.9240
v  -0.8679 14.3360 -5.5694
v  -0.5392 12.8701 -5.0019
v  -0.5391 14.3175 -5.6513
v  -0.2605 12.7663 -5.2238
v  -0.2604 14.2650 -5.8846
v  -0.0742 12.6111 -5.5559
v  -0.0741 14.1863 -6.2338
v  -0.0089 12.4280 -5.9477
v  -0.0087 14.0936 -6.6457
v  -0.2603 16.0786 -7.7942
v  -0.2603 62.5211 -7.7942
v  -0.0740 62.5211 -7.4275
v  -0.0740 16.0786 -7.4275
v  -0.5391 16.0786 -8.0393
v  -0.5391 62.5211 -8.0393
v  -0.8679 16.0786 -8.1253
v  -0.8679 62.5211 -8.1253
v  -1.1968 16.0786 -8.0393
v  -1.1968 62.5211 -8.0393
v  -1.4756 16.0786 -7.7942
v  -1.4756 62.5211 -7.7942
v  -1.6618 16.0786 -7.4275
v  -1.6618 62.5211 -7.4275
v  -1.7272 16.0786 -6.9950
v  -1.7272 62.5211 -6.9950
v  -1.6618 16.0786 -6.5624
v  -1.6618 62.5211 -6.5624
v  -1.4756 16.0786 -6.1957
v  -1.4756 62.5211 -6.1957
v  -1.1968 16.0786 -5.9507
v  -1.1968 62.5211 -5.9507
v  -0.8679 16.0786 -5.8646
v  -0.8679 62.5211 -5.8646
v  -0.5391 16.0786 -5.9507
v  -0.5391 62.5211 -5.9507
v  -0.2603 16.0786 -6.1957
v  -0.2603 62.5211 -6.1957
v  -0.0740 16.0786 -6.5624
v  -0.0740 62.5211 -6.5624
v  -0.0086 16.0786 -6.9950
v  -0.0086 62.5211 -6.9950
v  -0.0742 0.4587 -1.0620
v  -0.2605 0.3034 -1.3941
v  -0.5392 0.1997 -1.6160
v  -0.8679 0.1633 -1.6940
v  -1.1967 0.1997 -1.6160
v  -1.4754 0.3034 -1.3941
v  -1.6616 0.4587 -1.0620
v  -1.7270 0.6418 -0.6703
v  -1.6616 0.8249 -0.2785
v  -1.4754 0.9802 0.0536
v  -1.1967 1.0839 0.2755
v  -0.8679 1.1203 0.3534
v  -0.5392 1.0839 0.2755
v  -0.2605 0.9802 0.0536
v  -0.0742 0.8249 -0.2785
v  -0.0089 0.6418 -0.6703
v  -0.2123 0.4905 -0.9939
v  -0.3661 0.3623 -1.2683
v  -0.5963 0.2766 -1.4516
v  -0.8679 0.2465 -1.5160
v  -1.1395 0.2766 -1.4516
v  -1.3698 0.3623 -1.2683
v  -1.5236 0.4905 -0.9939
v  -1.5776 0.6418 -0.6703
v  -1.5236 0.7931 -0.3466
v  -1.3698 0.9213 -0.0723
v  -1.1395 1.0070 0.1110
v  -0.8679 1.0371 0.1754
v  -0.5963 1.0070 0.1110
v  -0.3661 0.9213 -0.0723
v  -0.2123 0.7931 -0.3466
v  -0.1582 0.6418 -0.6703
v  -0.2123 11.9585 -6.1658
v  -0.3661 11.8303 -6.4402
v  -0.5963 11.7446 -6.6235
v  -0.8679 11.7145 -6.6879
v  -1.1395 11.7446 -6.6235
v  -1.3698 11.8303 -6.4402
v  -1.5236 11.9585 -6.1658
v  -1.5776 12.1098 -5.8422
v  -1.5236 12.2611 -5.5186
v  -1.3698 12.3893 -5.2442
v  -1.1395 12.4750 -5.0609
v  -0.8679 12.5051 -4.9965
v  -0.5963 12.4750 -5.0609
v  -0.3661 12.3893 -5.2442
v  -0.2123 12.2611 -5.5186
v  -0.1582 12.1098 -5.8422
v  -0.8679 62.5211 -6.9950
# 226 vertices

vn 0.7955 -0.2447 -0.5544
vn 0.7841 -0.1682 -0.5974
vn 0.9484 -0.0870 -0.3051
vn 0.9537 -0.1217 -0.2750
vn 0.4776 -0.3544 -0.8039
vn 0.4655 -0.2383 -0.8524
vn 0.0000 -0.4032 -0.9151
vn 0.0000 -0.2685 -0.9633
vn -0.4776 -0.3544 -0.8039
vn -0.4655 -0.2383 -0.8524
vn -0.7955 -0.2447 -0.5544
vn -0.7841 -0.1682 -0.5974
vn -0.9537 -0.1217 -0.2750
vn -0.9484 -0.0870 -0.3051
vn -1.0000 0.0003 0.0003
vn -0.9999 -0.0044 -0.0135
vn -0.9534 0.1228 0.2754
vn -0.9570 0.0803 0.2786
vn -0.7949 0.2476 0.5539
vn -0.8011 0.1683 0.5744
vn -0.4770 0.3592 0.8022
vn -0.4829 0.2488 0.8396
vn 0.0000 0.4089 0.9126
vn 0.0000 0.2853 0.9584
vn 0.4770 0.3592 0.8022
vn 0.4829 0.2488 0.8396
vn 0.7949 0.2476 0.5539
vn 0.8011 0.1683 0.5744
vn 0.9534 0.1228 0.2754
vn 0.9570 0.0803 0.2786
vn 1.0000 0.0003 0.0003
vn 0.9999 -0.0044 -0.0135
vn 0.7955 -0.0049 -0.6060
vn 0.7961 0.0000 -0.6052
vn 0.9538 0.0000 -0.3004
vn 0.9535 -0.0024 -0.3012
vn 0.4778 -0.0071 -0.8784
vn 0.4784 0.0000 -0.8781
vn 0.0000 -0.0080 -1.0000
vn 0.0000 0.0000 -1.0000
vn -0.4778 -0.0071 -0.8784
vn -0.4784 0.0000 -0.8781
vn -0.7955 -0.0049 -0.6060
vn -0.7961 0.0000 -0.6052
vn -0.9535 -0.0024 -0.3012
vn -0.9538 0.0000 -0.3004
vn -1.0000 -0.0002 -0.0008
vn -1.0000 0.0000 -0.0000
vn -0.9540 0.0019 0.2997
vn -0.9538 0.0000 0.3004
vn -0.7964 0.0039 0.6047
vn -0.7961 0.0000 0.6052
vn -0.4788 0.0056 0.8779
vn -0.4784 0.0000 0.8781
vn 0.0000 0.0063 1.0000
vn 0.0000 0.0000 1.0000
vn 0.4788 0.0056 0.8779
vn 0.4784 0.0000 0.8781
vn 0.7964 0.0039 0.6047
vn 0.7961 0.0000 0.6052
vn 0.9540 0.0019 0.2997
vn 0.9538 0.0000 0.3004
vn 1.0000 -0.0002 -0.0008
vn 1.0000 0.0000 -0.0000
vn 0.9533 -0.1234 -0.2755
vn 0.7951 -0.2478 -0.5535
vn 0.4774 -0.3591 -0.8020
vn 0.0000 -0.4087 -0.9127
vn -0.4774 -0.3591 -0.8020
vn -0.7951 -0.2478 -0.5535
vn -0.9533 -0.1234 -0.2755
vn -1.0000 -0.0006 -0.0014
vn -0.9543 0.1221 0.2728
vn -0.7970 0.2468 0.5513
vn -0.4794 0.3586 0.8010
vn 0.0000 0.4087 0.9127
vn 0.4794 0.3586 0.8010
vn 0.7970 0.2468 0.5513
vn 0.9543 0.1221 0.2728
vn 1.0000 -0.0006 -0.0014
vn 0.0000 -0.9059 0.4235
vn -0.9534 0.1240 0.2750
vn -0.9542 0.1230 0.2727
vn -0.7968 0.2484 0.5508
vn -0.7953 0.2492 0.5527
vn -0.4792 0.3608 0.8001
vn -0.4776 0.3612 0.8009
vn 0.0000 0.4111 0.9116
vn 0.4792 0.3608 0.8001
vn 0.4776 0.3612 0.8009
vn 0.7968 0.2484 0.5508
vn 0.7953 0.2492 0.5527
vn 0.9542 0.1230 0.2727
vn 0.9534 0.1240 0.2750
vn 1.0000 -0.0005 -0.0012
vn 1.0000 0.0005 0.0012
vn 0.9534 -0.1240 -0.2750
vn 0.9542 -0.1230 -0.2727
vn 0.7953 -0.2492 -0.5527
vn 0.7968 -0.2484 -0.5508
vn 0.4776 -0.3612 -0.8009
vn 0.4792 -0.3608 -0.8001
vn 0.0000 -0.4111 -0.9116
vn -0.4776 -0.3612 -0.8009
vn -0.4792 -0.3608 -0.8001
vn -0.7953 -0.2492 -0.5527
vn -0.7968 -0.2484 -0.5508
vn -0.9534 -0.1240 -0.2750
vn -0.9542 -0.1230 -0.2727
vn -1.0000 -0.0005 -0.0012
vn -1.0000 0.0005 0.0012
vn 0.0000 1.0000 -0.0000
# 112 vertex normals

vt 1.0000 0.0000 0.0000
vt 1.0000 0.4935 0.0000
vt 0.0000 0.4935 0.0000
vt 0.0000 0.0000 0.0000
vt 1.0000 1.0000 0.0000
vt 0.0000 1.0000 0.0000
vt 0.5000 1.0000 0.0000
# 7 texture coords

g initialShadingGroup_Tool
usemtl Metal
s 1
f 1/1/1 2/2/2 3/3/3 
f 3/3/3 4/4/4 1/1/1 
f 5/1/5 6/2/6 2/3/2 
f 2/3/2 1/4/1 5/1/5 
f 7/1/7 8/2/8 6/3/6 
f 6/3/6 5/4/5 7/1/7 
f 9/1/9 10/2/10 8/3/8 
f 8/3/8 7/4/7 9/1/9 
f 9/4/9 11/1/11 12/2/12 
f 12/2/12 10/3/10 9/4/9 
f 11/4/11 13/1/13 14/2/14 
f 14/2/14 12/3/12 11/4/11 
f 13/4/13 15/1/15 16/2/16 
f 16/2/16 14/3/14 13/4/13 
f 15/4/15 17/1/17 18/2/18 
f 18/2/18 16/3/16 15/4/15 
f 17/4/17 19/1/19 20/2/20 
f 20/2/20 18/3/18 17/4/17 
f 19/4/19 21/1/21 22/2/22 
f 22/2/22 20/3/20 19/4/19 
f 21/4/21 23/1/23 24/2/24 
f 24/2/24 22/3/22 21/4/21 
f 25/1/25 26/2/26 24/3/24 
f 24/3/24 23/4/23 25/1/25 
f 27/1/27 28/2/28 26/3/26 
f 26/3/26 25/4/25 27/1/27 
f 29/1/29 30/2/30 28/3/28 
f 28/3/28 27/4/27 29/1/29 
f 31/1/31 32/2/32 30/3/30 
f 30/3/30 29/4/29 31/1/31 
f 4/4/4 3/3/3 32/2/32 
f 32/2/32 31/1/31 4/4/4 
f 33/1/33 34/5/34 35/6/35 
f 35/6/35 36/4/36 33/1/33 
f 37/1/37 38/5/38 34/6/34 
f 34/6/34 33/4/33 37/1/37 
f 39/1/39 40/5/40 38/6/38 
f 38/6/38 37/4/37 39/1/39 
f 41/1/41 42/5/42 40/6/40 
f 40/6/40 39/4/39 41/1/41 
f 43/1/43 44/5/44 42/6/42 
f 42/6/42 41/4/41 43/1/43 
f 45/1/45 46/5/46 44/6/44 
f 44/6/44 43/4/43 45/1/45 
f 47/1/47 48/5/48 46/6/46 
f 46/6/46 45/4/45 47/1/47 
f 49/1/49 50/5/50 48/6/48 
f 48/6/48 47/4/47 49/1/49 
f 51/1/51 52/5/52 50/6/50 
f 50/6/50 49/4/49 51/1/51 
f 53/1/53 54/5/54 52/6/52 
f 52/6/52 51/4/51 53/1/53 
f 55/1/55 56/5/56 54/6/54 
f 54/6/54 53/4/53 55/1/55 
f 57/1/57 58/5/58 56/6/56 
f 56/6/56 55/4/55 57/1/57 
f 59/1/59 60/5/60 58/6/58 
f 58/6/58 57/4/57 59/1/59 
f 61/1/61 62/5/62 60/6/60 
f 60/6/60 59/4/59 61/1/61 
f 63/1/63 64/5/64 62/6/62 
f 62/6/62 61/4/61 63/1/63 
f 36/1/36 35/5/35 64/6/64 
f 64/6/64 63/4/63 36/1/36 
f 4/1/4 65/5/65 66/6/66 
f 66/6/66 1/4/1 4/1/4 
f 1/1/1 66/5/66 67/6/67 
f 67/6/67 5/4/5 1/1/1 
f 5/1/5 67/5/67 68/6/68 
f 68/6/68 7/4/7 5/1/5 
f 7/1/7 68/5/68 69/6/69 
f 69/6/69 9/4/9 7/1/7 
f 9/1/9 69/5/69 70/6/70 
f 70/6/70 11/4/11 9/1/9 
f 11/1/11 70/5/70 71/6/71 
f 71/6/71 13/4/13 11/1/11 
f 13/1/13 71/5/71 72/6/72 
f 72/6/72 15/4/15 13/1/13 
f 15/1/15 72/5/72 73/6/73 
f 73/6/73 17/4/17 15/1/15 
f 17/1/17 73/5/73 74/6/74 
f 74/6/74 19/4/19 17/1/17 
f 19/1/19 74/5/74 75/6/75 
f 75/6/75 21/4/21 19/1/19 
f 21/1/21 75/5/75 76/6/76 
f 76/6/76 23/4/23 21/1/21 
f 23/1/23 76/5/76 77/6/77 
f 77/6/77 25/4/25 23/1/23 
f 25/1/25 77/5/77 78/6/78 
f 78/6/78 27/4/27 25/1/25 
f 27/1/27 78/5/78 79/6/79 
f 79/6/79 29/4/29 27/1/27 
f 29/1/29 79/5/79 80/6/80 
f 80/6/80 31/4/31 29/1/29 
f 31/1/31 80/5/80 65/6/65 
f 65/6/65 4/4/4 31/1/31 
f 2/2/2 33/5/33 36/6/36 
f 36/6/36 3/3/3 2/2/2 
f 3/3/3 36/6/36 63/5/63 
f 63/5/63 32/2/32 3/3/3 
f 32/2/32 63/5/63 61/6/61 
f 61/6/61 30/3/30 32/2/32 
f 30/2/30 61/5/61 59/6/59 
f 59/6/59 28/3/28 30/2/30 
f 28/2/28 59/5/59 57/6/57 
f 57/6/57 26/3/26 28/2/28 
f 26/2/26 57/5/57 55/6/55 
f 55/6/55 24/3/24 26/2/26 
f 22/3/22 24/2/24 55/5/55 
f 55/5/55 53/6/53 22/3/22 
f 20/3/20 22/2/22 53/5/53 
f 53/5/53 51/6/51 20/3/20 
f 18/3/18 20/2/20 51/5/51 
f 51/5/51 49/6/49 18/3/18 
f 16/3/16 18/2/18 49/5/49 
f 49/5/49 47/6/47 16/3/16 
f 14/3/14 16/2/16 47/5/47 
f 47/5/47 45/6/45 14/3/14 
f 12/3/12 14/2/14 45/5/45 
f 45/5/45 43/6/43 12/3/12 
f 10/3/10 12/2/12 43/5/43 
f 43/5/43 41/6/41 10/3/10 
f 8/3/8 10/2/10 41/5/41 
f 41/5/41 39/6/39 8/3/8 
f 8/2/8 39/5/39 37/6/37 
f 37/6/37 6/3/6 8/2/8 
f 6/2/6 37/5/37 33/6/33 
f 33/6/33 2/3/2 6/2/6 
s 2
f 65/1/81 81/5/81 82/6/81 
f 82/6/81 66/4/81 65/1/81 
f 66/1/81 82/5/81 83/6/81 
f 83/6/81 67/4/81 66/1/81 
f 67/1/81 83/5/81 84/6/81 
f 84/6/81 68/4/81 67/1/81 
f 69/4/81 68/1/81 84/5/81 
f 84/5/81 85/6/81 69/4/81 
f 70/4/81 69/1/81 85/5/81 
f 85/5/81 86/6/81 70/4/81 
f 71/4/81 70/1/81 86/5/81 
f 86/5/81 87/6/81 71/4/81 
f 72/4/81 71/1/81 87/5/81 
f 87/5/81 88/6/81 72/4/81 
f 72/1/81 88/5/81 89/6/81 
f 89/6/81 73/4/81 72/1/81 
f 73/1/81 89/5/81 90/6/81 
f 90/6/81 74/4/81 73/1/81 
f 74/1/81 90/5/81 91/6/81 
f 91/6/81 75/4/81 74/1/81 
f 75/1/81 91/5/81 92/6/81 
f 92/6/81 76/4/81 75/1/81 
f 77/4/81 76/1/81 92/5/81 
f 92/5/81 93/6/81 77/4/81 
f 78/4/81 77/1/81 93/5/81 
f 93/5/81 94/6/81 78/4/81 
f 79/4/81 78/1/81 94/5/81 
f 94/5/81 95/6/81 79/4/81 
f 80/4/81 79/1/81 95/5/81 
f 95/5/81 96/6/81 80/4/81 
f 80/1/81 96/5/81 81/6/81 
f 81/6/81 65/4/81 80/1/81 
s 3
f 81/1/82 97/5/83 98/6/84 
f 98/6/84 82/4/85 81/1/82 
f 82/1/85 98/5/84 99/6/86 
f 99/6/86 83/4/87 82/1/85 
f 83/1/87 99/5/86 100/6/88 
f 100/6/88 84/4/88 83/1/87 
f 84/1/88 100/5/88 101/6/89 
f 101/6/89 85/4/90 84/1/88 
f 85/1/90 101/5/89 102/6/91 
f 102/6/91 86/4/92 85/1/90 
f 86/1/92 102/5/91 103/6/93 
f 103/6/93 87/4/94 86/1/92 
f 87/1/94 103/5/93 104/6/95 
f 104/6/95 88/4/96 87/1/94 
f 88/1/96 104/5/95 105/6/97 
f 105/6/97 89/4/98 88/1/96 
f 89/1/98 105/5/97 106/6/99 
f 106/6/99 90/4/100 89/1/98 
f 90/1/100 106/5/99 107/6/101 
f 107/6/101 91/4/102 90/1/100 
f 91/1/102 107/5/101 108/6/103 
f 108/6/103 92/4/103 91/1/102 
f 92/1/103 108/5/103 109/6/104 
f 109/6/104 93/4/105 92/1/103 
f 93/1/105 109/5/104 110/6/106 
f 110/6/106 94/4/107 93/1/105 
f 94/1/107 110/5/106 111/6/108 
f 111/6/108 95/4/109 94/1/107 
f 95/1/109 111/5/108 112/6/110 
f 112/6/110 96/4/111 95/1/109 
f 96/1/111 112/5/110 97/6/83 
f 97/6/83 81/4/82 96/1/111 
s 4
f 35/4/112 34/1/112 113/7/112 
f 34/4/112 38/1/112 113/7/112 
f 38/4/112 40/1/112 113/7/112 
f 40/4/112 42/1/112 113/7/112 
f 42/4/112 44/1/112 113/7/112 
f 44/4/112 46/1/112 113/7/112 
f 46/4/112 48/1/112 113/7/112 
f 48/4/112 50/1/112 113/7/112 
f 50/4/112 52/1/112 113/7/112 
f 52/4/112 54/1/112 113/7/112 
f 54/4/112 56/1/112 113/7/112 
f 56/4/112 58/1/112 113/7/112 
f 58/4/112 60/1/112 113/7/112 
f 60/4/112 62/1/112 113/7/112 
f 62/4/112 64/1/112 113/7/112 
f 64/4/112 35/1/112 113/7/112 
s 5
f 114/1/1 115/2/2 116/3/3 
f 116/3/3 117/4/4 114/1/1 
f 118/1/5 119/2/6 115/3/2 
f 115/3/2 114/4/1 118/1/5 
f 120/1/7 121/2/8 119/3/6 
f 119/3/6 118/4/5 120/1/7 
f 122/1/9 123/2/10 121/3/8 
f 121/3/8 120/4/7 122/1/9 
f 122/4/9 124/1/11 125/2/12 
f 125/2/12 123/3/10 122/4/9 
f 124/4/11 126/1/13 127/2/14 
f 127/2/14 125/3/12 124/4/11 
f 126/4/13 128/1/15 129/2/16 
f 129/2/16 127/3/14 126/4/13 
f 128/4/15 130/1/17 131/2/18 
f 131/2/18 129/3/16 128/4/15 
f 130/4/17 132/1/19 133/2/20 
f 133/2/20 131/3/18 130/4/17 
f 132/4/19 134/1/21 135/2/22 
f 135/2/22 133/3/20 132/4/19 
f 134/4/21 136/1/23 137/2/24 
f 137/2/24 135/3/22 134/4/21 
f 138/1/25 139/2/26 137/3/24 
f 137/3/24 136/4/23 138/1/25 
f 140/1/27 141/2/28 139/3/26 
f 139/3/26 138/4/25 140/1/27 
f 142/1/29 143/2/30 141/3/28 
f 141/3/28 140/4/27 142/1/29 
f 144/1/31 145/2/32 143/3/30 
f 143/3/30 142/4/29 144/1/31 
f 117/4/4 116/3/3 145/2/32 
f 145/2/32 144/1/31 117/4/4 
f 146/1/33 147/5/34 148/6/35 
f 148/6/35 149/4/36 146/1/33 
f 150/1/37 151/5/38 147/6/34 
f 147/6/34 146/4/33 150/1/37 
f 152/1/39 153/5/40 151/6/38 
f 151/6/38 150/4/37 152/1/39 
f 154/1/41 155/5/42 153/6/40 
f 153/6/40 152/4/39 154/1/41 
f 156/1/43 157/5/44 155/6/42 
f 155/6/42 154/4/41 156/1/43 
f 158/1/45 159/5/46 157/6/44 
f 157/6/44 156/4/43 158/1/45 
f 160/1/47 161/5/48 159/6/46 
f 159/6/46 158/4/45 160/1/47 
f 162/1/49 163/5/50 161/6/48 
f 161/6/48 160/4/47 162/1/49 
f 164/1/51 165/5/52 163/6/50 
f 163/6/50 162/4/49 164/1/51 
f 166/1/53 167/5/54 165/6/52 
f 165/6/52 164/4/51 166/1/53 
f 168/1/55 169/5/56 167/6/54 
f 167/6/54 166/4/53 168/1/55 
f 170/1/57 171/5/58 169/6/56 
f 169/6/56 168/4/55 170/1/57 
f 172/1/59 173/5/60 171/6/58 
f 171/6/58 170/4/57 172/1/59 
f 174/1/61 175/5/62 173/6/60 
f 173/6/60 172/4/59 174/1/61 
f 176/1/63 177/5/64 175/6/62 
f 175/6/62 174/4/61 176/1/63 
f 149/1/36 148/5/35 177/6/64 
f 177/6/64 176/4/63 149/1/36 
f 117/1/4 178/5/65 179/6/66 
f 179/6/66 114/4/1 117/1/4 
f 114/1/1 179/5/66 180/6/67 
f 180/6/67 118/4/5 114/1/1 
f 118/1/5 180/5/67 181/6/68 
f 181/6/68 120/4/7 118/1/5 
f 120/1/7 181/5/68 182/6/69 
f 182/6/69 122/4/9 120/1/7 
f 122/1/9 182/5/69 183/6/70 
f 183/6/70 124/4/11 122/1/9 
f 124/1/11 183/5/70 184/6/71 
f 184/6/71 126/4/13 124/1/11 
f 126/1/13 184/5/71 185/6/72 
f 185/6/72 128/4/15 126/1/13 
f 128/1/15 185/5/72 186/6/73 
f 186/6/73 130/4/17 128/1/15 
f 130/1/17 186/5/73 187/6/74 
f 187/6/74 132/4/19 130/1/17 
f 132/1/19 187/5/74 188/6/75 
f 188/6/75 134/4/21 132/1/19 
f 134/1/21 188/5/75 189/6/76 
f 189/6/76 136/4/23 134/1/21 
f 136/1/23 189/5/76 190/6/77 
f 190/6/77 138/4/25 136/1/23 
f 138/1/25 190/5/77 191/6/78 
f 191/6/78 140/4/27 138/1/25 
f 140/1/27 191/5/78 192/6/79 
f 192/6/79 142/4/29 140/1/27 
f 142/1/29 192/5/79 193/6/80 
f 193/6/80 144/4/31 142/1/29 
f 144/1/31 193/5/80 178/6/65 
f 178/6/65 117/4/4 144/1/31 
f 115/2/2 146/5/33 149/6/36 
f 149/6/36 116/3/3 115/2/2 
f 116/3/3 149/6/36 176/5/63 
f 176/5/63 145/2/32 116/3/3 
f 145/2/32 176/5/63 174/6/61 
f 174/6/61 143/3/30 145/2/32 
f 143/2/30 174/5/61 172/6/59 
f 172/6/59 141/3/28 143/2/30 
f 141/2/28 172/5/59 170/6/57 
f 170/6/57 139/3/26 141/2/28 
f 139/2/26 170/5/57 168/6/55 
f 168/6/55 137/3/24 139/2/26 
f 135/3/22 137/2/24 168/5/55 
f 168/5/55 166/6/53 135/3/22 
f 133/3/20 135/2/22 166/5/53 
f 166/5/53 164/6/51 133/3/20 
f 131/3/18 133/2/20 164/5/51 
f 164/5/51 162/6/49 131/3/18 
f 129/3/16 131/2/18 162/5/49 
f 162/5/49 160/6/47 129/3/16 
f 127/3/14 129/2/16 160/5/47 
f 160/5/47 158/6/45 127/3/14 
f 125/3/12 127/2/14 158/5/45 
f 158/5/45 156/6/43 125/3/12 
f 123/3/10 125/2/12 156/5/43 
f 156/5/43 154/6/41 123/3/10 
f 121/3/8 123/2/10 154/5/41 
f 154/5/41 152/6/39 121/3/8 
f 121/2/8 152/5/39 150/6/37 
f 150/6/37 119/3/6 121/2/8 
f 119/2/6 150/5/37 146/6/33 
f 146/6/33 115/3/2 119/2/6 
s 6
f 178/1/81 194/5/81 195/6/81 
f 195/6/81 179/4/81 178/1/81 
f 179/1/81 195/5/81 196/6/81 
f 196/6/81 180/4/81 179/1/81 
f 180/1/81 196/5/81 197/6/81 
f 197/6/81 181/4/81 180/1/81 
f 182/4/81 181/1/81 197/5/81 
f 197/5/81 198/6/81 182/4/81 
f 183/4/81 182/1/81 198/5/81 
f 198/5/81 199/6/81 183/4/81 
f 184/4/81 183/1/81 199/5/81 
f 199/5/81 200/6/81 184/4/81 
f 185/4/81 184/1/81 200/5/81 
f 200/5/81 201/6/81 185/4/81 
f 185/1/81 201/5/81 202/6/81 
f 202/6/81 186/4/81 185/1/81 
f 186/1/81 202/5/81 203/6/81 
f 203/6/81 187/4/81 186/1/81 
f 187/1/81 203/5/81 204/6/81 
f 204/6/81 188/4/81 187/1/81 
f 188/1/81 204/5/81 205/6/81 
f 205/6/81 189/4/81 188/1/81 
f 190/4/81 189/1/81 205/5/81 
f 205/5/81 206/6/81 190/4/81 
f 191/4/81 190/1/81 206/5/81 
f 206/5/81 207/6/81 191/4/81 
f 192/4/81 191/1/81 207/5/81 
f 207/5/81 208/6/81 192/4/81 
f 193/4/81 192/1/81 208/5/81 
f 208/5/81 209/6/81 193/4/81 
f 193/1/81 209/5/81 194/6/81 
f 194/6/81 178/4/81 193/1/81 
s 7
f 194/1/82 210/5/83 211/6/84 
f 211/6/84 195/4/85 194/1/82 
f 195/1/85 211/5/84 212/6/86 
f 212/6/86 196/4/87 195/1/85 
f 196/1/87 212/5/86 213/6/88 
f 213/6/88 197/4/88 196/1/87 
f 197/1/88 213/5/88 214/6/89 
f 214/6/89 198/4/90 197/1/88 
f 198/1/90 214/5/89 215/6/91 
f 215/6/91 199/4/92 198/1/90 
f 199/1/92 215/5/91 216/6/93 
f 216/6/93 200/4/94 199/1/92 
f 200/1/94 216/5/93 217/6/95 
f 217/6/95 201/4/96 200/1/94 
f 201/1/96 217/5/95 218/6/97 
f 218/6/97 202/4/98 201/1/96 
f 202/1/98 218/5/97 219/6/99 
f 219/6/99 203/4/100 202/1/98 
f 203/1/100 219/5/99 220/6/101 
f 220/6/101 204/4/102 203/1/100 
f 204/1/102 220/5/101 221/6/103 
f 221/6/103 205/4/103 204/1/102 
f 205/1/103 221/5/103 222/6/104 
f 222/6/104 206/4/105 205/1/103 
f 206/1/105 222/5/104 223/6/106 
f 223/6/106 207/4/107 206/1/105 
f 207/1/107 223/5/106 224/6/108 
f 224/6/108 208/4/109 207/1/107 
f 208/1/109 224/5/108 225/6/110 
f 225/6/110 209/4/111 208/1/109 
f 209/1/111 225/5/110 210/6/83 
f 210/6/83 194/4/82 209/1/111 
s 8
f 148/4/112 147/1/112 226/7/112 
f 147/4/112 151/1/112 226/7/112 
f 151/4/112 153/1/112 226/7/112 
f 153/4/112 155/1/112 226/7/112 
f 155/4/112 157/1/112 226/7/112 
f 157/4/112 159/1/112 226/7/112 
f 159/4/112 161/1/112 226/7/112 
f 161/4/112 163/1/112 226/7/112 
f 163/4/112 165/1/112 226/7/112 
f 165/4/112 167/1/112 226/7/112 
f 167/4/112 169/1/112 226/7/112 
f 169/4/112 171/1/112 226/7/112 
f 171/4/112 173/1/112 226/7/112 
f 173/4/112 175/1/112 226/7/112 
f 175/4/112 177/1/112 226/7/112 
f 177/4/112 148/1/112 226/7/112 
# 0 polygons - 416 triangles

